<?xml version="1.0" encoding="utf-8"?>
<!-- Generator: Adobe Illustrator 21.0.2, SVG Export Plug-In . SVG Version: 6.00 Build 0)  -->
<svg version="1.1" id="соц_сети" xmlns="http://www.w3.org/2000/svg" xmlns:xlink="http://www.w3.org/1999/xlink" x="0px"
	 y="0px" viewBox="0 0 51 51" style="enable-background:new 0 0 51 51;" xml:space="preserve">
<style type="text/css">
	.st0{display:none;}
	.st1{display:inline;fill:none;stroke:#FFFFFF;stroke-miterlimit:10;}
	.st2{display:inline;fill:#FFFFFF;}
	.st3{display:inline;}
	.st4{fill:#050505;}
	.st5{fill:none;}
	.st6{fill:none;stroke:#FFFFFF;stroke-miterlimit:10;}
	.st7{fill:#FFFFFF;}
</style>
<g id="telegram" class="st0">
	<circle class="st1" cx="25.6" cy="25.6" r="24.9"/>
	<circle class="st2" cx="25.6" cy="25.6" r="14.5"/>
	<g id="XMLID_496_" class="st3">
		<g>
			<path id="XMLID_11_" class="st4" d="M17.4,25.3l3.9,1.5l1.5,4.9c0.1,0.3,0.5,0.4,0.7,0.2l2.2-1.8c0.2-0.2,0.6-0.2,0.8,0l3.9,2.9
				c0.3,0.2,0.7,0,0.7-0.3L34,18.7c0.1-0.4-0.3-0.7-0.6-0.5l-16.1,6.2C17,24.6,17,25.1,17.4,25.3z M22.6,26l7.6-4.7
				c0.1-0.1,0.3,0.1,0.2,0.2l-6.3,5.9c-0.2,0.2-0.4,0.5-0.4,0.8l-0.2,1.6c0,0.2-0.3,0.2-0.4,0l-0.8-2.9C22.1,26.5,22.3,26.1,22.6,26
				z"/>
		</g>
	</g>
</g>
<g id="instagram" class="st0">
	<circle class="st1" cx="25.5" cy="25.4" r="24.9"/>
	<circle class="st2" cx="25.5" cy="25.3" r="14.5"/>
	<g class="st3">
		<path class="st5" d="M32.5,21.6c0-1.8-1.4-3.2-3.2-3.2h-7.6c-1.8,0-3.2,1.4-3.2,3.2v7.6c0,1.8,1.4,3.2,3.2,3.2h7.6
			c1.8,0,3.2-1.4,3.2-3.2h0V21.6z M25.5,29.8c-2.4,0-4.4-2-4.4-4.4c0-2.4,2-4.4,4.4-4.4s4.4,2,4.4,4.4
			C29.9,27.8,27.9,29.8,25.5,29.8z M30.9,21.6c-0.2,0.2-0.5,0.3-0.8,0.3c-0.3,0-0.6-0.1-0.8-0.3c-0.2-0.2-0.3-0.5-0.3-0.8
			c0-0.3,0.1-0.6,0.3-0.8c0.2-0.2,0.5-0.3,0.8-0.3c0.3,0,0.6,0.1,0.8,0.3c0.2,0.2,0.3,0.5,0.3,0.8C31.2,21.1,31.1,21.4,30.9,21.6z"
			/>
		<circle class="st5" cx="25.5" cy="25.4" r="2.9"/>
		<path d="M29.3,16.9h-7.6c-2.6,0-4.7,2.1-4.7,4.7v7.6c0,2.6,2.1,4.7,4.7,4.7h7.6c2.6,0,4.7-2.1,4.7-4.7v-7.6
			C34,19,31.9,16.9,29.3,16.9z M29.3,32.4h-7.6c-1.8,0-3.2-1.4-3.2-3.2v-7.6c0-1.8,1.4-3.2,3.2-3.2h7.6c1.8,0,3.2,1.4,3.2,3.2v7.6h0
			C32.5,30.9,31.1,32.4,29.3,32.4z"/>
		<path d="M25.5,21c-2.4,0-4.4,2-4.4,4.4c0,2.4,2,4.4,4.4,4.4s4.4-2,4.4-4.4C29.9,23,27.9,21,25.5,21z M25.5,28.3
			c-1.6,0-2.9-1.3-2.9-2.9c0-1.6,1.3-2.9,2.9-2.9s2.9,1.3,2.9,2.9C28.4,27,27.1,28.3,25.5,28.3z"/>
		<path d="M30.1,19.7c-0.3,0-0.6,0.1-0.8,0.3c-0.2,0.2-0.3,0.5-0.3,0.8c0,0.3,0.1,0.6,0.3,0.8c0.2,0.2,0.5,0.3,0.8,0.3
			c0.3,0,0.6-0.1,0.8-0.3c0.2-0.2,0.3-0.5,0.3-0.8c0-0.3-0.1-0.6-0.3-0.8C30.6,19.9,30.4,19.7,30.1,19.7z"/>
	</g>
</g>
<g id="fb">
	<circle class="st6" cx="25.5" cy="25.5" r="24.9"/>
	<circle class="st7" cx="25.5" cy="25.5" r="14.5"/>
	<g>
		<path id="Facebook" d="M23.3,20.3c0,0.4,0,2.3,0,2.3h-1.7v2.8h1.7v8.4h3.5v-8.4h2.3c0,0,0.2-1.3,0.3-2.8c-0.3,0-2.6,0-2.6,0
			s0-1.6,0-1.9c0-0.3,0.4-0.7,0.8-0.7c0.4,0,1.2,0,1.9,0c0-0.4,0-1.7,0-2.9c-1,0-2.1,0-2.6,0C23.2,17.1,23.3,19.9,23.3,20.3z"/>
	</g>
</g>
<g id="vk" class="st0">
	<circle class="st1" cx="25.5" cy="25.7" r="24.9"/>
	<circle class="st2" cx="25.5" cy="25.7" r="14.5"/>
	<g id="XMLID_1_" class="st3">
		<path id="XMLID_807_" d="M32.4,27.5c0.6,0.6,1.3,1.2,1.9,1.9c0.2,0.3,0.5,0.6,0.7,1c0.3,0.5,0,1-0.4,1.1l-2.8,0
			c-0.7,0.1-1.3-0.2-1.8-0.7c-0.4-0.4-0.7-0.8-1.1-1.2c-0.2-0.2-0.3-0.3-0.5-0.4c-0.4-0.2-0.7-0.2-0.9,0.2c-0.2,0.4-0.3,0.8-0.3,1.3
			c0,0.7-0.2,0.8-0.9,0.9c-1.4,0.1-2.7-0.1-4-0.9c-1.1-0.6-1.9-1.5-2.7-2.5c-1.4-1.9-2.5-4.1-3.5-6.2c-0.2-0.5-0.1-0.8,0.5-0.8
			c0.9,0,1.8,0,2.7,0c0.4,0,0.6,0.2,0.8,0.6c0.5,1.2,1.1,2.3,1.8,3.4c0.2,0.3,0.4,0.6,0.7,0.8c0.3,0.2,0.6,0.1,0.7-0.2
			c0.1-0.2,0.1-0.5,0.2-0.7c0.1-0.8,0.1-1.7,0-2.5c-0.1-0.5-0.4-0.9-0.9-1c-0.3-0.1-0.2-0.1-0.1-0.3c0.2-0.3,0.4-0.4,0.8-0.4h3.1
			c0.5,0.1,0.6,0.3,0.7,0.8l0,3.5c0,0.2,0.1,0.8,0.4,0.9c0.3,0.1,0.5-0.1,0.6-0.3c0.7-0.8,1.3-1.7,1.8-2.7c0.2-0.4,0.4-0.9,0.6-1.3
			c0.1-0.3,0.3-0.5,0.7-0.5l3,0c0.1,0,0.2,0,0.3,0c0.5,0.1,0.6,0.3,0.5,0.8c-0.2,0.8-0.7,1.4-1.2,2.1c-0.5,0.7-1,1.4-1.5,2.1
			C31.8,26.6,31.8,27,32.4,27.5L32.4,27.5z"/>
	</g>
</g>
</svg>
