<?xml version="1.0" encoding="utf-8"?>
<!-- Generator: Adobe Illustrator 21.0.2, SVG Export Plug-In . SVG Version: 6.00 Build 0)  -->
<svg version="1.1" id="Слой_1" xmlns="http://www.w3.org/2000/svg" xmlns:xlink="http://www.w3.org/1999/xlink" x="0px" y="0px"
	 viewBox="0 0 785.2 309" style="enable-background:new 0 0 785.2 309;" xml:space="preserve">
<style type="text/css">
	.st0{fill:#FE8F33;}
	.st1{enable-background:new    ;}
	.st2{fill:#FFFFFF;}
</style>
<g id="_x31_">
	<g>
		<g>
			<path class="st0" d="M366.2,166.3C366.2,166.3,366.2,166.4,366.2,166.3c-0.1,0.2-0.2,0.2-0.2,0.3
				C366.1,166.5,366.1,166.4,366.2,166.3z"/>
			<path class="st0" d="M366.7,161.5c-0.1-0.2-0.1-0.3-0.2-0.5l0,0c0,0.1,0.1,0.2,0.1,0.3C366.7,161.4,366.7,161.4,366.7,161.5z"/>
			<path class="st0" d="M367,162.3L367,162.3c0-0.2-0.1-0.5-0.2-0.9c0.1,0.2,0.1,0.3,0.2,0.5C366.9,162,366.9,162.2,367,162.3
				C366.9,162.3,367,162.3,367,162.3z"/>
			<path class="st0" d="M367,162.9c0-0.2,0-0.3-0.1-0.5c0,0.1,0.1,0.1,0.1,0.2C367,162.8,367,162.8,367,162.9z"/>
			<path class="st0" d="M366.8,165c0.1-0.3,0.2-0.7,0.2-1C367,164.3,366.9,164.6,366.8,165z"/>
			<path class="st0" d="M367,164C367,163.9,367,163.9,367,164C367,163.9,367,163.9,367,164z"/>
			<path class="st0" d="M367.1,163.4c0,0.2,0,0.3,0,0.5c0-0.3,0-0.7,0-1C367.1,163.1,367.1,163.2,367.1,163.4z"/>
		</g>
	</g>
	<g>
		<g>
			<path class="st0" d="M326.4,234.2c-2.1,1-4.1,2-6.3,2.9c-1.6,0.6-3.2,1.2-4.7,1.7C319,237.3,322.8,235.8,326.4,234.2z"/>
		</g>
	</g>
	<g>
		<g>
			<path class="st0" d="M366.2,166.3C366.2,166.3,366.2,166.4,366.2,166.3c-0.1,0.2-0.2,0.2-0.2,0.3
				C366.1,166.5,366.1,166.4,366.2,166.3z"/>
			<path class="st0" d="M366.7,161.5c-0.1-0.2-0.1-0.3-0.2-0.5l0,0c0,0.1,0.1,0.2,0.1,0.3C366.7,161.4,366.7,161.4,366.7,161.5z"/>
			<path class="st0" d="M367,162.3L367,162.3c0-0.2-0.1-0.5-0.2-0.9c0.1,0.2,0.1,0.3,0.2,0.5C366.9,162,366.9,162.2,367,162.3
				C366.9,162.3,367,162.3,367,162.3z"/>
			<path class="st0" d="M367,162.9c0-0.2,0-0.3-0.1-0.5c0,0.1,0.1,0.1,0.1,0.2C367,162.8,367,162.8,367,162.9z"/>
			<path class="st0" d="M366.8,165c0.1-0.3,0.2-0.7,0.2-1C367,164.3,366.9,164.6,366.8,165z"/>
			<path class="st0" d="M367.1,163.4c0,0.2,0,0.3,0,0.5c0-0.3,0-0.7,0-1C367.1,163.1,367.1,163.2,367.1,163.4z"/>
			<path class="st0" d="M367,164C367,163.9,367,163.9,367,164C367,163.9,367,163.9,367,164z"/>
		</g>
	</g>
	<g>
		<g>
			<path class="st0" d="M366.2,166.3C366.2,166.3,366.2,166.4,366.2,166.3c-0.1,0.2-0.2,0.2-0.2,0.3
				C366.1,166.5,366.1,166.4,366.2,166.3z"/>
			<path class="st0" d="M367,162.9c0-0.2,0-0.3-0.1-0.5c0-0.3-0.1-0.6-0.2-1c-0.1-0.2-0.1-0.3-0.2-0.5s-0.1-0.3-0.2-0.5
				c0.1,0.2,0.2,0.3,0.2,0.5c0,0.1,0.1,0.2,0.1,0.3c0.1,0.2,0.1,0.4,0.2,0.6c0,0.1,0.1,0.2,0.1,0.3c0,0,0,0,0,0.1s0,0.2,0.1,0.4
				C367,162.8,367,162.8,367,162.9z"/>
			<path class="st0" d="M367.1,163.4c0,0.2,0,0.3,0,0.5c0-0.3,0-0.7,0-1C367.1,163.1,367.1,163.2,367.1,163.4z"/>
			<path class="st0" d="M366.8,165c0.1-0.3,0.2-0.7,0.2-1C367,164.3,366.9,164.6,366.8,165z"/>
			<path class="st0" d="M367,164C367,163.9,367,163.9,367,164C367,163.9,367,163.9,367,164z"/>
			<path class="st0" d="M372.3,180.5c-2.5,25.4-23.2,43.1-45.6,53.4c-0.1,0-0.1,0.1-0.2,0.1c-3.6,1.7-7.4,3.2-11,4.5
				c-0.1,0-0.1,0.1-0.2,0.1c-12.1,4.3-24.1,6.6-33,6.9c-1.3,0.1-2.5,0.1-3.6,0.1c-18.6,0-28.9-4.9-33.6-8.2
				c-0.8-0.3-1.3-0.4-1.4-0.5c-3.4-1.3-5-4.8-3.6-7.9c1.4-3.2,5.3-4.5,8.7-3.3c0.5,0.2,34.6,12.6,66.3,0c19.6-7.8,34.5-23.6,44.2-47
				c0,0,0-0.1,0.1-0.1c0.7-2.9,3.7-4.9,7.1-4.6C369.9,174.2,372.6,177.2,372.3,180.5z"/>
			<path class="st0" d="M348.1,236.8c-0.7,3-16.5,69.9-60.3,69.9c-1.1,0-2.2-0.1-3.3-0.1c-2.8-0.2-5-2.3-5.5-5
				c-0.5-2.8,1-5.4,3.5-6.6c0.1,0,11.3-5.3,14.7-15.2c1.9-5.4,1-11.5-2.6-18.2c-1.6-3-0.5-6.6,2.6-8.2c3-1.6,6.6-0.5,8.2,2.6
				c5.2,9.8,6.3,19.2,3.3,27.9c-0.4,1.2-0.9,2.4-1.5,3.5c20.2-16,28.9-52.6,29-53.1c0.8-3.3,4-5.3,7.3-4.5
				C346.8,230.3,348.9,233.6,348.1,236.8z"/>
			<path class="st0" d="M309.2,17c-0.5-0.2-1.1-0.4-1.6-0.7C308.2,16.4,308.7,16.7,309.2,17z"/>
		</g>
	</g>
	<g>
		<g>
			<path class="st0" d="M289.3,76.9c0-5.6,5.2-10.3,11.6-10.3s11.6,4.6,11.6,10.3c0,5.6-5.2,10.3-11.6,10.3
				C294.4,87.2,289.3,82.6,289.3,76.9z"/>
		</g>
	</g>
	<g>
		<g>
			<path class="st0" d="M382,95.9c-0.1-0.9-3.2-21.9-22.2-44c-10.2-11.7-26-25-50.7-35c-0.5-0.2-1.1-0.4-1.6-0.7c0,0,0,0-0.1,0
				c-17.2-6.7-38.5-11.8-64.8-13.6c-8.8,5.1-1.7,12-1.7,12c21.9,1.5,41.3,5.2,58.1,11.4l1.1,20.4c0.2,3.3,3.2,5.8,6.6,5.8
				c0.1,0,0.2,0,0.3,0c0.1,0,0.3,0,0.4,0l0,0c13.3,3.2,22.5,13.7,22.5,26c0,3.4,3,6.1,6.6,6.1s6.6-2.8,6.6-6.1
				c0-17.2-12.2-32-30.1-37.2l-0.5-9.3c14.4,7,26.4,16,36.1,27c17.1,19.4,19.9,38.4,19.9,38.4c2.5,22.4-0.5,40.9-9,55.4l-37.2-45.1
				c-0.2-0.3-0.5-0.6-0.8-0.8c-0.1-0.3-0.2-0.6-0.4-1c-1.5-3.1-5.4-4.4-8.8-3.1c-3.9,1.6-8.1,2.5-12.5,2.5
				c-16.6,0-30.1-12-30.1-26.9c0-6.3,2.5-12.4,6.9-17.2c2.4-2.6,2.1-6.4-0.8-8.6s-7-1.9-9.4,0.7c-6.5,7-10.1,15.9-10.1,25
				c0,3.5,0.5,6.8,1.4,10l-76.8,45.3c-7.4-9.2-19.3-14.8-31.9-14.8c-21.9,0-39.6,16.2-39.6,36.1c0,5.6,1.5,11.3,4.2,16.3
				c1.2,2.1,3.5,3.4,5.9,3.4c1,0,2.1-0.2,3-0.7c3.3-1.5,4.6-5.2,3-8.2c-1.9-3.4-2.9-7-2.9-10.7c0-13.2,11.8-23.9,26.3-23.9
				c10.2,0,19.5,5.3,23.9,13.7c0.8,1.6,2.4,2.8,4.2,3.3c1.9,0.5,3.8,0.2,5.4-0.7l80.8-47.6c7.7,10.8,21.2,17.9,36.5,17.9
				c4.2,0,8.5-0.5,12.4-1.7l39.4,47.5c-1.4,1.5-2.9,3-4.4,4.3c-31.5,28.1-86.7,22.2-87.3,22.1c-2.4-0.3-4.7,0.7-6.2,2.5
				c-28.7,35.6-60.3,54.9-94,57.5c-36.6,2.7-66.3-15.6-77.9-24l11.6-10.2c1.3-1.2,2.1-2.8,2.1-4.4c0-1.7-0.8-3.3-2.2-4.4
				c-15.9-13.3-25-32.1-25-51.9c0-38.8,34.8-70.4,77.5-70.4c10.1,0,19.8,1.7,29.1,5.1c3.5,1.3,7.3-0.3,8.7-3.4
				c1.4-3.2-0.3-6.6-3.6-7.9c-7.9-2.9-16.1-4.7-24.5-5.5V30.4c0-3.2-2.7-5.8-6.1-6C93.2,19.9,57.5,40.1,37.4,57.9
				C15.7,77.1,7.4,97.2,7.1,98.1c-1.3,3.2,0.5,6.6,3.9,7.8c0.8,0.3,1.5,0.4,2.3,0.4c2.8,0,5.2-1.6,6.2-3.9
				c0.3-0.7,29.3-70.4,122.8-66.2v36.6c-48.4,1.8-87.2,38.2-87.2,82.5c0,20.9,8.8,41,24.4,56.2L68,221.6c-0.1,0.1-0.3,0.2-0.4,0.3
				s-0.1,0.1-0.2,0.1c-2.6,2.4-2.6,6.2,0.1,8.6c1.6,1.4,36.1,31.8,84.8,31.8c2.8,0,5.6-0.1,8.5-0.3c36.8-2.7,70.9-22.8,101.5-59.7
				c14.2,1,63,2.1,94.3-25.7c3.2-2.9,6-5.8,8.6-9.1c0,0,0-0.1,0.1-0.1c0.3-0.3,0.5-0.6,0.7-0.9c0,0.1-0.1,0.1-0.1,0.2
				c0.1-0.1,0.1-0.2,0.2-0.3c0,0,0,0.1-0.1,0.1C380,148.7,385.3,125.1,382,95.9z M366.7,161.5c-0.1-0.2-0.1-0.3-0.2-0.5
				s-0.1-0.3-0.2-0.5c0.1,0.2,0.2,0.3,0.2,0.5c0,0.1,0.1,0.2,0.1,0.3c0.1,0.2,0.1,0.4,0.2,0.6c0,0.1,0.1,0.2,0.1,0.3c0,0,0,0,0,0.1
				s0,0.2,0.1,0.4c0,0.1,0,0.2,0,0.2c0-0.2,0-0.3-0.1-0.5C366.9,162.1,366.8,161.8,366.7,161.5z M367,163.9c0-0.3,0-0.7,0-1
				c0,0.2,0,0.3,0,0.5C367.1,163.6,367,163.7,367,163.9z"/>
			<path class="st0" d="M135.9,188.8l-19.4,29.9c10.2,4.3,21.4,6.5,32.6,6.5c42.7,0,77.5-31.6,77.5-70.4c0-4.5-0.5-9.1-1.4-13.4
				c-0.7-3.3,1.7-6.5,5.2-7.1c3.5-0.7,7.1,1.5,7.8,4.8c1.1,5.1,1.7,10.5,1.7,15.8c0,45.6-40.7,82.5-90.8,82.5
				c-15.9,0-31.6-3.8-45.3-10.9c-1.6-0.8-2.7-2.2-3.2-3.7c-0.5-1.6-0.2-3.3,0.7-4.6l26-40c1.8-2.9,5.8-3.8,9-2.3c3.8,2,8.3,3,12.7,3
				c12.4,0,23.4-8.1,25.8-19.1c0.7-3.3,4.2-5.4,7.9-4.7c3.5,0.7,5.9,3.8,5.2,7.2c-3.7,16.7-20.1,28.8-38.8,28.8
				C144.7,190.9,140.2,190.2,135.9,188.8z"/>
		</g>
	</g>
	<g>
		<g>
			<path class="st0" d="M241.1,69.6c-1.2,0-2.4-0.3-3.5-1c-30.5-19.2-61.8-18.7-62.2-18.6c-3.4,0.1-6.1-2.4-6.2-5.4s2.6-5.6,5.9-5.7
				c1.4,0,35.8-0.7,69.4,20.6c2.8,1.8,3.5,5.2,1.5,7.7C244.8,68.8,242.9,69.6,241.1,69.6z"/>
		</g>
	</g>
</g>
<g class="st1">
	<path class="st2" d="M473.1,80.5l-8.7,8.3c-5.9-6.2-12.5-9.4-19.9-9.4c-6.2,0-11.5,2.1-15.7,6.4c-4.3,4.3-6.4,9.5-6.4,15.7
		c0,4.3,0.9,8.2,2.8,11.6s4.6,6,8,7.9c3.5,1.9,7.3,2.9,11.5,2.9c3.6,0,6.9-0.7,9.9-2s6.3-3.8,9.8-7.3l8.4,8.8
		c-4.8,4.7-9.4,8-13.6,9.8c-4.3,1.8-9.2,2.7-14.7,2.7c-10.1,0-18.4-3.2-24.9-9.6c-6.5-6.4-9.7-14.6-9.7-24.7
		c0-6.5,1.5-12.3,4.4-17.3s7.1-9.1,12.6-12.2s11.4-4.6,17.7-4.6c5.4,0,10.5,1.1,15.5,3.4S469.5,76.3,473.1,80.5z"/>
	<path class="st2" d="M505.2,84.8c4.5,0,8.8,1.1,12.8,3.4s7.1,5.4,9.4,9.3c2.2,3.9,3.4,8.1,3.4,12.6s-1.1,8.8-3.4,12.8
		c-2.3,4-5.3,7-9.2,9.3c-3.9,2.2-8.2,3.3-12.9,3.3c-6.9,0-12.8-2.5-17.7-7.4c-4.9-4.9-7.3-10.9-7.3-17.9c0-7.5,2.8-13.8,8.3-18.8
		C493.4,86.9,499,84.8,505.2,84.8z M505.4,96.1c-3.8,0-6.9,1.3-9.4,3.9s-3.7,6-3.7,10c0,4.2,1.2,7.6,3.7,10.2s5.6,3.9,9.4,3.9
		s6.9-1.3,9.4-3.9s3.8-6,3.8-10.1s-1.2-7.5-3.7-10.1C512.4,97.4,509.3,96.1,505.4,96.1z"/>
	<path class="st2" d="M545.4,66.2c2.1,0,3.9,0.8,5.5,2.3c1.5,1.5,2.3,3.4,2.3,5.6s-0.8,4-2.3,5.5s-3.3,2.3-5.4,2.3
		c-2.1,0-4-0.8-5.5-2.3s-2.3-3.4-2.3-5.6c0-2.1,0.8-3.9,2.3-5.4C541.5,66.9,543.3,66.2,545.4,66.2z M539.3,86h12.1v48.2h-12.1V86z"
		/>
	<path class="st2" d="M562.4,86h12.1v4.9c2.7-2.3,5.2-3.9,7.5-4.8c2.2-0.9,4.5-1.4,6.8-1.4c4.8,0,8.8,1.7,12.2,5
		c2.8,2.8,4.2,7,4.2,12.6v31.8h-12V113c0-5.8-0.3-9.6-0.8-11.5s-1.4-3.3-2.7-4.3s-2.9-1.5-4.7-1.5c-2.4,0-4.5,0.8-6.3,2.5
		s-3,3.9-3.6,6.8c-0.4,1.5-0.5,4.8-0.5,9.8v19.3h-12.1V86H562.4z"/>
</g>
<g class="st1">
	<path class="st2" d="M618.1,134.2V67.4h6.2v26.9c2.6-3.2,5.5-5.6,8.7-7.2s6.7-2.4,10.6-2.4c6.8,0,12.6,2.5,17.5,7.4
		c4.8,4.9,7.2,10.9,7.2,18c0,7-2.4,12.9-7.3,17.8c-4.9,4.9-10.7,7.4-17.6,7.4c-3.9,0-7.5-0.8-10.7-2.5c-3.2-1.7-6-4.2-8.5-7.6v8.9
		H618.1z M642.9,129.4c3.4,0,6.6-0.8,9.5-2.5c2.9-1.7,5.2-4.1,7-7.2c1.7-3.1,2.6-6.3,2.6-9.7c0-3.4-0.9-6.7-2.6-9.8
		c-1.7-3.1-4.1-5.5-7-7.2c-2.9-1.7-6.1-2.6-9.4-2.6c-3.4,0-6.6,0.9-9.7,2.6c-3,1.7-5.4,4.1-7,7c-1.6,2.9-2.5,6.2-2.5,9.9
		c0,5.6,1.8,10.2,5.5,14C633,127.6,637.5,129.4,642.9,129.4z"/>
	<path class="st2" d="M702.3,84.8c7.4,0,13.6,2.7,18.5,8.1c4.4,4.9,6.7,10.7,6.7,17.4c0,6.7-2.3,12.6-7,17.6
		c-4.7,5-10.7,7.6-18.1,7.6c-7.4,0-13.4-2.5-18.1-7.6c-4.7-5-7-10.9-7-17.6c0-6.7,2.2-12.5,6.7-17.4
		C688.7,87.5,694.9,84.8,702.3,84.8z M702.3,90.8c-5.2,0-9.6,1.9-13.3,5.7c-3.7,3.8-5.6,8.4-5.6,13.8c0,3.5,0.8,6.7,2.5,9.7
		c1.7,3,4,5.3,6.8,7c2.9,1.6,6,2.5,9.5,2.5s6.6-0.8,9.5-2.5c2.9-1.6,5.2-4,6.8-7c1.7-3,2.5-6.3,2.5-9.7c0-5.4-1.9-10-5.6-13.8
		C711.9,92.7,707.4,90.8,702.3,90.8z"/>
	<path class="st2" d="M733.4,86h7.4l12.8,17.6L766.4,86h7.5l-16.4,22.8l18.5,25.4h-7.6l-14.7-20.2l-14.6,20.2h-7.4l18.3-25.4
		L733.4,86z"/>
</g>
<g class="st1">
	<path class="st2" d="M407,230.9l5.5-3.3c3.9,7.2,8.4,10.8,13.5,10.8c2.2,0,4.2-0.5,6.2-1.5s3.4-2.4,4.4-4.1s1.5-3.5,1.5-5.4
		c0-2.2-0.7-4.3-2.2-6.4c-2-2.9-5.8-6.4-11.2-10.5c-5.4-4.1-8.8-7.1-10.1-8.9c-2.3-3.1-3.5-6.4-3.5-10c0-2.8,0.7-5.4,2-7.7
		c1.4-2.3,3.3-4.2,5.7-5.5c2.5-1.3,5.1-2,8-2c3.1,0,5.9,0.8,8.6,2.3s5.5,4.3,8.5,8.4l-5.3,4c-2.5-3.2-4.5-5.4-6.3-6.4
		c-1.7-1-3.6-1.5-5.6-1.5c-2.6,0-4.8,0.8-6.4,2.4c-1.7,1.6-2.5,3.6-2.5,5.9c0,1.4,0.3,2.8,0.9,4.1s1.7,2.8,3.2,4.3
		c0.9,0.8,3.7,3,8.4,6.5c5.6,4.2,9.5,7.9,11.6,11.1c2.1,3.2,3.1,6.5,3.1,9.8c0,4.7-1.8,8.8-5.4,12.3s-7.9,5.2-13.1,5.2
		c-4,0-7.5-1.1-10.8-3.2S409.7,235.8,407,230.9z"/>
	<path class="st2" d="M458,194.8h6.2v8.9c2.4-3.4,5.3-5.9,8.4-7.6c3.2-1.7,6.7-2.5,10.7-2.5c6.8,0,12.7,2.5,17.6,7.4
		s7.3,10.9,7.3,17.8c0,7.1-2.4,13.1-7.2,18c-4.8,4.9-10.6,7.4-17.5,7.4c-3.8,0-7.4-0.8-10.6-2.4c-3.2-1.6-6.1-4-8.7-7.1v25.9H458
		V194.8z M482.8,199.6c-5.4,0-9.9,1.9-13.5,5.6s-5.5,8.4-5.5,14c0,3.7,0.8,6.9,2.5,9.9s4,5.2,7,6.9s6.3,2.6,9.7,2.6
		c3.3,0,6.5-0.9,9.4-2.6c2.9-1.7,5.3-4.1,7-7.2c1.7-3.1,2.6-6.3,2.6-9.7s-0.9-6.7-2.6-9.7c-1.7-3.1-4-5.4-7-7.1
		C489.4,200.4,486.2,199.6,482.8,199.6z"/>
	<path class="st2" d="M567.7,194.8V243h-6.1v-8.3c-2.6,3.2-5.5,5.5-8.7,7.1s-6.8,2.4-10.6,2.4c-6.8,0-12.6-2.5-17.5-7.4
		c-4.8-4.9-7.2-11-7.2-18c0-6.9,2.4-12.9,7.3-17.8c4.9-4.9,10.7-7.4,17.6-7.4c4,0,7.5,0.8,10.7,2.5s6,4.2,8.4,7.6v-8.9L567.7,194.8
		L567.7,194.8z M543,199.6c-3.5,0-6.6,0.8-9.6,2.5c-2.9,1.7-5.2,4.1-7,7.1c-1.7,3.1-2.6,6.3-2.6,9.7s0.9,6.6,2.6,9.7s4.1,5.5,7,7.2
		s6.1,2.6,9.4,2.6c3.4,0,6.6-0.9,9.6-2.6c3-1.7,5.4-4,7-6.9s2.5-6.2,2.5-9.9c0-5.6-1.8-10.2-5.5-14
		C552.8,201.5,548.3,199.6,543,199.6z"/>
	<path class="st2" d="M628.4,204.9l-4.9,3.1c-4.2-5.6-10-8.5-17.4-8.5c-5.9,0-10.7,1.9-14.6,5.7c-3.9,3.8-5.8,8.4-5.8,13.8
		c0,3.5,0.9,6.8,2.7,9.9c1.8,3.1,4.2,5.5,7.3,7.2s6.6,2.6,10.5,2.6c7.1,0,12.9-2.8,17.3-8.5l4.9,3.2c-2.3,3.5-5.4,6.2-9.3,8.1
		c-3.9,1.9-8.3,2.9-13.3,2.9c-7.6,0-13.9-2.4-19-7.3s-7.5-10.7-7.5-17.7c0-4.7,1.2-9,3.5-13s5.6-7.1,9.7-9.4
		c4.1-2.2,8.7-3.4,13.8-3.4c3.2,0,6.3,0.5,9.2,1.5c3,1,5.5,2.2,7.6,3.8C625.2,200.4,627,202.4,628.4,204.9z"/>
	<path class="st2" d="M680.9,227l5.2,2.7c-1.7,3.4-3.7,6.1-5.9,8.1c-2.2,2.1-4.8,3.6-7.6,4.7c-2.8,1.1-6,1.6-9.5,1.6
		c-7.9,0-14-2.6-18.4-7.7c-4.4-5.2-6.6-11-6.6-17.5c0-6.1,1.9-11.6,5.6-16.3c4.8-6.1,11.1-9.1,19.1-9.1c8.2,0,14.8,3.1,19.7,9.3
		c3.5,4.4,5.3,9.9,5.3,16.5h-43.4c0.1,5.6,1.9,10.2,5.4,13.8s7.7,5.4,12.8,5.4c2.5,0,4.8-0.4,7.2-1.3c2.3-0.9,4.3-2,5.9-3.4
		S679,230.2,680.9,227z M680.9,214.1c-0.8-3.3-2-5.9-3.6-7.9s-3.7-3.6-6.3-4.8s-5.3-1.8-8.2-1.8c-4.7,0-8.8,1.5-12.2,4.6
		c-2.5,2.2-4.4,5.5-5.6,10h35.9V214.1z"/>
</g>
</svg>
