<?xml version="1.0" encoding="utf-8"?>
<!-- Generator: Adobe Illustrator 21.0.2, SVG Export Plug-In . SVG Version: 6.00 Build 0)  -->
<svg version="1.1" id="Слой_1" xmlns="http://www.w3.org/2000/svg" xmlns:xlink="http://www.w3.org/1999/xlink" x="0px" y="0px"
	 viewBox="0 0 51 51" style="enable-background:new 0 0 51 51;" xml:space="preserve">
<style type="text/css">
	.st0{fill:none;stroke:#FFFFFF;stroke-miterlimit:10;}
	.st1{fill:#FFFFFF;}
	.st2{fill:#050505;}
</style>
<circle class="st0" cx="25.6" cy="25.6" r="24.9"/>
<circle class="st1" cx="25.6" cy="25.6" r="14.5"/>
<g id="XMLID_496_">
	<g>
		<path id="XMLID_9_" class="st2" d="M17.4,25.3l3.9,1.5l1.5,4.9c0.1,0.3,0.5,0.4,0.7,0.2l2.2-1.8c0.2-0.2,0.6-0.2,0.8,0l3.9,2.9
			c0.3,0.2,0.7,0,0.7-0.3L34,18.7c0.1-0.4-0.3-0.7-0.6-0.5l-16.1,6.2C17,24.6,17,25.1,17.4,25.3z M22.6,26l7.6-4.7
			c0.1-0.1,0.3,0.1,0.2,0.2l-6.3,5.9c-0.2,0.2-0.4,0.5-0.4,0.8l-0.2,1.6c0,0.2-0.3,0.2-0.4,0l-0.8-2.9C22.1,26.5,22.3,26.1,22.6,26z
			"/>
	</g>
</g>
</svg>
